<?xml version="1.0" standalone="no"?>
<!DOCTYPE svg PUBLIC "-//W3C//DTD SVG 20010904//EN"
 "http://www.w3.org/TR/2001/REC-SVG-20010904/DTD/svg10.dtd">
<svg version="1.0" xmlns="http://www.w3.org/2000/svg"
 width="267.901103pt" height="479.802218pt" viewBox="0 0 267.901103 479.802218"
 preserveAspectRatio="xMidYMid meet">
<metadata>
Created by potrace 1.12, written by Peter Selinger 2001-2015
</metadata>
<g transform="translate(-21.098897,490.861393) scale(0.100000,-0.100000)"
fill="#000000" stroke="none">
<path d="M847 4886 c-38 -14 -94 -40 -124 -58 -68 -41 -174 -137 -212 -192
-32 -47 -94 -190 -123 -286 -24 -80 -30 -246 -10 -302 18 -50 98 -158 117
-158 10 0 2 12 -19 31 -20 17 -50 61 -68 97 -30 61 -33 74 -31 157 0 54 9 121
22 168 33 124 40 126 41 9 0 -132 21 -221 80 -348 41 -88 46 -103 34 -119 -23
-31 -17 -81 11 -103 14 -11 25 -22 25 -25 0 -4 -11 -23 -25 -43 -40 -59 -28
-116 34 -162 l31 -23 -39 -52 c-51 -68 -81 -138 -81 -192 0 -44 22 -109 41
-120 7 -5 4 -14 -10 -29 -29 -30 -41 -70 -41 -130 0 -70 24 -101 95 -121 44
-13 52 -19 48 -35 -3 -11 -9 -20 -14 -20 -5 0 -8 -15 -6 -32 2 -32 2 -33 -66
-50 -142 -36 -263 -128 -321 -242 -24 -46 -28 -65 -24 -107 3 -27 11 -56 18
-62 10 -10 11 -8 5 8 -4 11 -9 39 -12 61 -11 86 91 220 213 282 47 24 153 62
171 62 2 0 -26 -34 -62 -76 -133 -152 -211 -297 -221 -411 -6 -63 -5 -73 10
-79 11 -4 22 0 30 11 11 16 14 8 19 -56 7 -82 20 -136 40 -163 20 -28 37 -11
37 36 l0 41 23 -34 c32 -48 53 -45 49 6 l-2 40 19 -35 c10 -19 28 -44 40 -54
21 -19 22 -19 36 0 23 30 17 9 -16 -63 -37 -77 -33 -92 27 -109 36 -10 39 -13
36 -43 -5 -46 11 -59 84 -66 35 -4 67 -12 70 -17 4 -6 28 -20 54 -32 l47 -22
-38 -64 c-92 -152 -116 -279 -84 -449 38 -196 148 -350 270 -375 l30 -7 24
-142 c26 -156 49 -311 47 -314 -1 -1 -51 -5 -111 -8 -230 -12 -243 -17 -267
-97 l-11 -37 -63 6 c-45 4 -64 2 -64 -6 0 -8 111 -11 419 -11 230 0 446 -3
481 -7 47 -4 61 -3 56 5 -5 8 -46 12 -122 12 l-114 0 0 34 c0 19 -6 36 -12 39
-10 3 -12 105 -10 478 3 377 0 509 -13 643 -11 116 -12 173 -5 180 5 5 10 29
10 52 l0 41 58 6 c31 4 66 9 78 13 18 5 20 0 23 -42 1 -27 7 -54 13 -61 32
-39 110 21 123 95 4 29 13 42 31 51 43 19 50 13 83 -66 43 -103 163 -333 214
-408 95 -141 247 -336 326 -418 167 -173 181 -190 175 -214 -5 -17 1 -26 28
-43 18 -11 39 -20 46 -20 35 0 86 37 123 89 129 183 219 325 219 346 0 28 -34
55 -70 55 -66 -1 -162 -74 -215 -166 -15 -27 -30 -51 -32 -53 -2 -3 -17 8 -33
24 -36 34 -130 208 -190 350 -45 106 -160 312 -242 433 -27 40 -65 105 -83
145 -30 64 -32 73 -18 82 9 6 27 20 41 31 l26 21 -29 64 c-35 77 -150 436
-207 647 -39 141 -41 155 -25 163 25 15 47 63 47 106 0 71 -40 205 -90 305
-40 77 -50 107 -50 145 0 48 1 49 127 178 128 133 181 202 271 360 96 169 94
247 -7 216 -21 -6 -57 -25 -81 -43 -24 -18 -49 -37 -56 -43 -9 -7 -32 9 -81
56 -37 36 -92 79 -121 95 -47 25 -52 32 -47 54 32 140 31 180 -5 180 -11 0
-20 4 -20 10 0 13 -59 42 -75 36 -8 -3 -18 14 -28 51 -16 54 -16 56 6 75 l22
19 -23 -11 c-28 -14 -25 -16 -40 35 -16 55 -94 184 -149 245 -28 31 -69 61
-111 82 -66 33 -68 33 -227 36 -149 2 -165 1 -228 -22z m390 -13 c3 -7 10 -10
17 -7 8 3 20 -2 29 -10 9 -9 20 -16 26 -16 21 0 21 -20 -1 -39 -20 -20 -92
-61 -105 -61 -15 0 21 29 43 34 20 5 87 57 72 56 -2 -1 -27 -9 -57 -19 -49
-17 -57 -18 -97 -4 -45 15 -50 33 -10 33 12 0 28 6 35 13 11 10 12 9 6 -2 -5
-8 -4 -12 1 -8 6 3 16 2 24 -4 13 -7 12 -9 -2 -9 -10 0 -18 -5 -18 -11 0 -11
52 -4 80 11 13 8 13 9 0 13 -8 2 -33 10 -55 17 -53 18 -176 19 -182 3 -3 -7
-9 -13 -14 -13 -4 0 -6 7 -3 15 5 11 -1 15 -22 14 -23 0 -25 -2 -11 -8 10 -4
18 -11 17 -16 -4 -33 10 -45 52 -46 23 -1 33 -4 21 -6 -13 -2 -23 -8 -23 -13
0 -4 -7 -10 -14 -13 -10 -4 -13 -1 -9 9 3 9 -1 14 -11 14 -9 0 -21 10 -26 23
-5 12 -18 33 -27 46 l-17 23 139 -4 c93 -2 140 -7 142 -15z m-149 -119 c12 -8
31 -13 41 -9 10 3 29 1 42 -5 19 -8 13 -10 -34 -7 -37 2 -64 10 -75 20 -21 21
-4 22 26 1z m-300 -91 c20 -72 88 -211 128 -260 20 -24 38 -42 40 -40 3 2 -13
38 -35 78 -35 65 -101 219 -101 235 0 4 18 -10 40 -30 114 -103 351 -176 571
-176 l96 0 27 -61 c14 -33 26 -68 26 -77 0 -13 4 -11 21 7 23 24 54 21 77 -7
17 -22 16 -27 -15 -48 -33 -21 -213 -185 -334 -304 -97 -96 -109 -115 -143
-232 l-24 -83 -68 -10 c-100 -15 -191 -2 -269 36 -36 18 -76 45 -89 60 -20 23
-30 27 -72 26 -123 -4 -145 105 -29 143 l32 11 -19 38 c-10 21 -31 80 -46 132
-24 84 -27 109 -26 234 2 156 11 195 66 271 32 45 102 104 123 104 6 0 17 -21
23 -47z m942 -379 c0 -33 -29 -146 -40 -158 -5 -5 15 -20 48 -36 66 -31 142
-92 187 -149 l31 -39 59 49 c89 73 155 89 155 36 0 -37 -76 -183 -167 -319
-45 -68 -56 -77 -68 -57 -4 6 -14 8 -22 5 -8 -3 -11 -1 -8 4 3 6 -4 10 -17 10
-21 0 -21 1 -6 16 15 15 10 21 -70 81 -75 56 -87 62 -93 46 -4 -10 -7 -27 -7
-38 0 -16 1 -15 7 4 10 35 24 36 61 1 17 -16 35 -30 39 -30 3 -1 19 -12 36
-25 29 -24 29 -25 10 -39 -24 -19 -85 -20 -108 -3 -9 6 -23 26 -32 42 -8 17
-15 23 -15 15 0 -36 75 -100 95 -82 5 4 5 1 1 -6 -4 -7 -12 -10 -17 -6 -14 8
-45 -21 -59 -57 -15 -36 -7 -70 25 -105 l25 -27 -40 -43 -40 -44 1 -87 c0 -56
3 -81 9 -68 6 17 16 3 53 -75 73 -155 95 -303 51 -351 -28 -31 -58 -23 -103
27 -23 26 -41 43 -41 38 0 -4 17 -26 38 -49 l39 -40 22 -175 c12 -96 21 -200
21 -231 l0 -56 -39 -7 c-31 -5 -50 -18 -90 -62 -43 -47 -51 -62 -51 -95 0 -42
23 -99 41 -99 6 0 8 -4 5 -9 -4 -5 8 -21 26 -36 37 -31 32 -51 -21 -75 l-32
-15 6 -92 c5 -63 3 -110 -6 -145 -14 -56 -38 -104 -40 -78 0 8 -4 5 -9 -7 -12
-29 -30 -29 -31 0 0 21 -1 21 -8 2 -6 -14 -11 9 -16 70 -4 50 -13 121 -19 160
l-11 69 -50 -3 c-28 -1 -56 -9 -64 -16 -16 -15 -50 -195 -51 -264 0 -33 -3
-42 -14 -38 -9 4 -13 1 -11 -6 3 -7 11 -92 20 -190 16 -184 21 -896 7 -986 -7
-42 -8 -44 -24 -28 -9 9 -18 13 -20 8 -2 -5 -24 -7 -49 -4 l-47 5 -15 97 c-9
53 -25 150 -36 216 -18 105 -19 120 -6 128 24 13 48 69 47 106 -2 56 -21 100
-70 159 -41 50 -48 66 -59 132 -6 41 -12 103 -12 138 -1 56 4 70 47 147 26 47
57 104 69 127 21 38 39 57 54 58 4 0 9 -19 12 -42 6 -47 35 -91 63 -97 16 -3
17 -1 5 13 -7 9 -17 13 -22 10 -20 -12 -39 69 -46 186 -3 66 -9 120 -14 120
-4 0 -10 -32 -14 -72 -8 -79 -34 -164 -63 -206 -65 -95 -142 -275 -142 -331 1
-43 35 -106 95 -171 65 -71 85 -111 85 -174 0 -59 -37 -106 -83 -106 -149 0
-299 299 -273 543 l7 65 64 -6 c61 -4 65 -3 94 26 45 45 44 103 -4 163 -19 24
-35 47 -35 50 0 3 27 44 61 90 33 46 69 100 78 120 l18 36 -29 18 c-36 21 -78
78 -119 162 -38 79 -51 175 -38 288 5 45 7 186 3 320 -4 157 -3 253 4 278 11
39 44 88 178 265 45 59 88 121 97 137 17 32 46 63 90 96 35 27 35 43 0 34 -26
-6 -27 -6 -10 13 21 23 22 42 2 42 -8 0 -15 5 -15 10 0 6 -6 10 -14 10 -8 0
-16 5 -18 11 -6 18 -45 -7 -62 -39 -15 -28 -186 -202 -186 -189 0 16 75 155
115 213 45 66 71 126 104 240 27 94 86 179 179 262 42 37 117 106 167 153 83
80 159 139 177 139 5 0 8 -12 8 -26z m-580 -647 c0 -14 -64 -123 -90 -155 -21
-25 -92 -173 -86 -179 3 -3 -4 -14 -14 -26 -18 -19 -21 -19 -38 -4 -10 9 -37
23 -61 32 -50 17 -51 18 -51 7 0 -4 9 -8 20 -9 29 -2 91 -34 97 -50 3 -8 -10
-31 -29 -51 -44 -47 -112 -132 -105 -132 2 0 29 30 59 68 30 37 114 128 186
202 73 74 132 138 132 143 0 4 9 16 20 27 l21 21 32 -22 c18 -13 34 -24 36
-26 3 -2 -5 -12 -17 -24 -27 -24 -20 -44 9 -28 37 19 33 0 -4 -21 -22 -13 -55
-51 -83 -93 -26 -40 -64 -92 -84 -117 -20 -25 -61 -81 -91 -125 -30 -43 -86
-113 -125 -154 -70 -72 -73 -74 -110 -68 -20 4 -42 11 -48 17 -6 6 -13 49 -15
95 -2 70 1 99 23 165 14 44 37 98 51 120 14 22 23 44 21 49 -8 12 76 163 98
175 25 15 129 123 140 146 9 19 28 26 79 29 16 0 27 -4 27 -12z m-567 -503 c3
-3 -6 -27 -20 -52 -30 -56 -26 -122 9 -159 16 -17 18 -23 7 -23 -22 0 -58 36
-65 66 -20 78 32 205 69 168z m319 -522 c-6 -553 -11 -489 39 -592 30 -65 57
-104 91 -136 l49 -46 -21 -40 c-11 -21 -39 -64 -62 -95 -39 -51 -44 -55 -75
-50 -18 3 -47 17 -65 30 -23 17 -53 27 -96 32 -34 4 -64 11 -67 15 -6 10 11
127 22 156 4 11 2 15 -4 11 -6 -4 -13 -25 -17 -47 -6 -37 -9 -40 -29 -34 -40
12 -67 23 -67 28 0 2 13 32 29 67 94 212 148 433 165 689 18 251 13 230 65
277 25 23 46 42 46 43 0 0 -1 -138 -3 -308z m-179 218 c9 -10 9 -11 0 -6 -6 3
-14 2 -18 -3 -7 -13 -32 -4 -39 14 -6 17 41 13 57 -5z m68 -10 c5 0 9 -4 9
-10 0 -5 -8 -6 -17 -3 -16 6 -17 5 -3 -12 13 -16 13 -18 0 -13 -8 2 -15 11
-15 19 0 8 -4 18 -10 22 -6 5 -2 6 8 3 10 -3 23 -6 28 -6z m1019 -245 c17 -66
49 -172 70 -235 21 -63 54 -170 74 -237 20 -67 50 -150 65 -185 23 -49 27 -66
18 -77 -7 -8 -48 -32 -92 -53 -44 -21 -104 -52 -134 -68 -30 -17 -68 -30 -88
-30 -19 0 -43 -5 -54 -10 -17 -9 -19 -7 -19 17 0 15 -3 58 -6 94 l-7 66 31 12
c31 13 88 88 119 156 26 58 23 329 -6 520 -34 224 -25 233 29 30z m-1337 -119
c-3 -4 -9 -2 -14 5 -6 10 -9 8 -9 -8 0 -12 -5 -25 -11 -29 -6 -3 -9 -14 -6
-24 3 -13 0 -17 -9 -13 -17 6 -18 15 -2 31 9 9 9 12 0 12 -7 0 -13 -3 -13 -7
-6 -33 -5 -52 2 -48 4 3 4 -9 -2 -27 -5 -18 -9 -34 -9 -36 0 -2 -4 0 -10 3 -5
3 -10 2 -10 -4 0 -17 25 -18 38 -2 12 14 13 14 7 -4 -16 -44 -17 -55 -6 -55 6
0 11 9 11 20 0 11 5 20 10 20 6 0 11 8 11 18 1 15 2 15 6 0 2 -9 -5 -33 -16
-54 -12 -21 -21 -32 -22 -24 -1 8 -5 4 -9 -10 -7 -20 -8 -16 -9 23 -1 54 -13
61 -31 17 -19 -46 -25 -43 -21 8 2 26 6 41 8 35 3 -7 9 -13 14 -13 5 0 4 11
-3 24 -11 25 1 55 68 174 l19 32 12 -27 c6 -16 9 -32 6 -37z m12 -94 c-5 -26
-9 -32 -15 -21 -6 8 -5 18 0 23 6 6 11 28 11 51 2 32 3 34 6 11 3 -16 2 -45
-2 -64z m-24 27 c-6 -16 -10 -18 -10 -7 -1 22 12 55 16 42 2 -6 -1 -22 -6 -35z
m1048 -716 c1 -30 -2 -32 -49 -42 -28 -6 -64 -11 -80 -11 -25 0 -30 4 -30 24
0 29 28 168 36 175 3 3 26 8 52 11 l47 5 12 -65 c6 -36 12 -79 12 -97z m587
-123 c68 -99 178 -295 235 -422 33 -73 85 -180 115 -236 l54 -104 -30 -34
c-16 -19 -30 -40 -30 -46 0 -6 -10 -3 -22 8 l-23 19 18 -22 c11 -12 16 -26 13
-32 -17 -27 -301 310 -441 524 -68 103 -235 438 -235 469 0 3 19 14 43 25 23
11 71 36 106 56 l65 35 50 -97 c28 -54 65 -119 82 -143z m-890 88 c-15 -10
-16 -8 -8 57 l6 60 6 -55 c4 -34 2 -58 -4 -62z m-173 -478 l6 -35 -14 30 c-8
17 -14 48 -14 70 l1 40 8 -35 c4 -19 10 -51 13 -70z m1742 -222 c-11 -6 -26
-20 -33 -30 -7 -10 -18 -16 -23 -13 -5 3 -6 0 -4 -8 8 -18 -30 -51 -47 -41
-10 6 -10 4 1 -9 12 -15 12 -17 -3 -11 -12 5 -15 2 -10 -12 5 -16 4 -16 -5 -4
-6 8 -11 12 -11 8 0 -3 -3 -14 -7 -24 -5 -13 -3 -15 7 -9 9 6 11 4 6 -4 -5 -7
-11 -10 -14 -7 -3 3 -12 0 -20 -7 -9 -6 1 15 22 48 21 33 48 68 59 78 33 27
81 57 92 57 6 0 1 -6 -10 -12z m43 -17 c-56 -36 -64 -47 -46 -69 12 -15 11
-16 -4 -4 -15 12 -23 5 -70 -60 -70 -95 -94 -135 -130 -216 -23 -53 -28 -60
-23 -31 11 73 55 159 129 258 76 100 133 151 170 151 14 0 6 -9 -26 -29z m50
-8 c-2 -11 -13 -18 -27 -18 -15 0 -25 -7 -27 -18 -1 -9 2 -17 7 -17 5 0 9 5 9
10 0 6 6 10 13 10 6 -1 1 -10 -12 -20 -13 -11 -20 -20 -17 -20 12 0 -25 -48
-41 -54 -9 -4 -6 4 8 18 23 24 32 65 18 76 -4 3 5 14 19 24 16 13 23 14 18 5
-4 -8 -1 -6 6 4 7 9 17 17 21 17 5 0 7 -8 5 -17z m-168 -159 c-11 -12 -10 -18
5 -32 17 -16 17 -16 12 0 -4 11 -2 17 6 15 7 -1 11 4 9 11 -1 8 2 11 9 6 6 -3
15 0 20 7 5 8 9 10 9 4 -1 -16 -59 -81 -60 -66 0 11 -4 10 -19 -3 -11 -10 -26
-16 -33 -13 -8 3 -6 6 6 6 12 1 16 6 13 15 -4 11 -1 13 11 9 15 -6 15 -5 3 10
-11 14 -11 20 -1 32 7 8 15 15 17 15 3 0 0 -7 -7 -16z m-160 -85 c-33 -65 -35
-70 -19 -66 18 4 21 -19 5 -36 -12 -12 -13 -17 -3 -20 6 -2 9 -8 4 -12 -4 -5
-13 -3 -19 3 -9 9 -9 15 -1 23 13 13 6 42 -9 33 -5 -3 -16 2 -23 12 -16 22
-20 58 -5 49 6 -3 7 1 4 10 -7 16 19 62 45 82 13 9 20 8 33 -4 16 -14 15 -19
-12 -74z m37 19 c-11 -24 -22 -49 -23 -56 -1 -8 -5 -17 -8 -20 -11 -11 0 33
19 76 10 23 22 42 26 42 4 0 -2 -19 -14 -42z m59 -38 c0 -11 -6 -20 -13 -20
-11 0 -11 5 -3 20 6 11 12 20 13 20 2 0 3 -9 3 -20z m35 -29 c-12 -21 -84
-101 -92 -101 -3 0 -6 7 -6 15 0 8 4 12 8 9 4 -2 10 0 14 6 3 5 1 10 -4 10
-16 0 -13 17 3 23 11 4 13 1 9 -10 -4 -10 -2 -14 6 -12 7 3 12 8 11 13 -1 4 8
16 19 25 12 10 21 23 21 30 0 6 5 11 10 11 7 0 7 -6 1 -19z m-1353 -330 c6 -1
12 -6 12 -12 0 -5 -4 -7 -10 -4 -5 3 -20 8 -31 10 -12 3 -24 7 -27 10 -3 3 5
3 19 1 13 -2 30 -5 37 -5z m-45 -21 c16 0 26 -4 23 -9 -4 -5 3 -7 14 -4 16 4
20 0 20 -21 0 -18 -5 -26 -17 -26 -26 1 -161 38 -140 39 10 1 20 8 24 17 4 10
13 14 27 10 11 -3 34 -6 49 -6z m-135 -38 c7 -5 -16 -7 -50 -4 -85 5 -96 10
-23 11 33 0 66 -3 73 -7z m-200 -14 c-16 -5 -28 -14 -28 -18 0 -11 -68 -25
-77 -16 -3 3 2 15 12 26 14 15 30 20 69 19 46 -1 48 -2 24 -11z m27 -28 c-3
-5 -16 -10 -28 -10 -18 0 -19 2 -7 10 20 13 43 13 35 0z m354 -7 c0 -11 -3
-13 -6 -5 -2 6 -9 12 -14 12 -6 0 -7 -4 -4 -10 3 -5 1 -10 -4 -10 -12 0 -14
13 -4 23 13 13 33 7 32 -10z m-206 0 c-24 -2 -62 -2 -85 0 -24 2 -5 4 42 4 47
0 66 -2 43 -4z m219 -33 c19 -5 -84 -8 -239 -9 -163 -1 -273 3 -273 8 0 5 10
12 23 14 33 8 450 -4 489 -13z"/>
<path d="M1244 4460 c-12 -5 -25 -15 -29 -22 -6 -10 -5 -11 6 0 7 6 23 12 36
12 13 0 23 5 23 10 0 12 -7 12 -36 0z"/>
<path d="M1340 4329 c-29 -12 -80 -58 -80 -73 0 -6 12 4 28 22 16 20 45 38 72
47 25 7 36 14 25 14 -11 0 -31 -5 -45 -10z"/>
<path d="M759 4303 l-24 -28 30 25 c17 14 32 26 34 28 2 1 0 2 -6 2 -5 0 -20
-12 -34 -27z"/>
<path d="M818 4154 c-27 -8 -48 -17 -48 -20 0 -4 8 -3 18 1 9 4 44 13 77 20
37 8 49 13 30 14 -16 0 -51 -7 -77 -15z"/>
<path d="M1251 4015 c-21 -40 -44 -57 -101 -78 -11 -4 -10 -6 4 -6 32 -2 86
39 107 81 11 22 19 42 17 43 -2 2 -14 -16 -27 -40z"/>
<path d="M1456 3994 c-10 -25 -7 -29 7 -10 12 16 16 15 50 -23 20 -23 39 -41
42 -41 2 0 15 -11 28 -24 l25 -25 -29 -12 c-31 -12 -95 -7 -112 10 -6 6 -14
30 -18 53 l-6 43 -2 -36 c-2 -72 63 -105 148 -77 l42 15 -76 71 c-43 40 -81
72 -85 72 -4 0 -11 -7 -14 -16z"/>
<path d="M2038 3800 c-14 -16 -22 -30 -18 -30 5 0 18 14 30 30 12 17 20 30 18
30 -2 0 -15 -13 -30 -30z"/>
<path d="M1580 3770 c13 -8 13 -14 -4 -44 -10 -18 -28 -39 -39 -45 -13 -7 -15
-10 -4 -7 12 4 17 -1 18 -17 1 -17 3 -15 8 8 12 48 40 85 59 78 14 -5 14 -3
-2 15 -11 12 -26 22 -35 22 -14 0 -14 -2 -1 -10z"/>
<path d="M1362 3358 c2 -5 8 -9 13 -9 5 0 11 4 13 9 1 5 -4 9 -13 9 -9 0 -14
-4 -13 -9z"/>
<path d="M1452 3261 c-10 -6 -10 -11 3 -21 19 -16 30 -7 18 14 -5 9 -13 12
-21 7z"/>
<path d="M1493 3250 c9 -14 44 -49 78 -79 33 -30 86 -88 117 -130 82 -112 95
-123 28 -21 -16 25 -77 92 -134 150 -58 58 -98 94 -89 80z"/>
<path d="M1426 3239 c18 -20 18 -20 -9 -14 -30 8 -36 -5 -12 -25 8 -7 12 -16
9 -21 -3 -5 2 -9 10 -9 21 0 20 5 -6 30 -22 20 -15 27 12 11 8 -6 18 -7 22 -5
9 6 -23 53 -36 54 -5 0 -1 -9 10 -21z"/>
<path d="M1375 3180 c-3 -5 7 -16 22 -24 38 -20 166 -169 216 -252 l40 -67
-18 -74 c-10 -40 -22 -73 -27 -73 -4 0 -8 5 -8 12 0 6 -7 3 -15 -8 -14 -18
-14 -18 -15 6 -1 23 -2 24 -14 8 -7 -10 -16 -18 -20 -18 -4 0 -3 8 2 18 5 10
3 39 -4 72 l-13 55 6 -50 c7 -58 7 -65 2 -85 -2 -8 3 -15 11 -15 8 0 20 -4 27
-8 6 -4 14 -3 18 2 3 6 12 8 20 5 8 -4 17 0 19 7 2 8 13 42 24 77 l20 63 -44
74 c-51 84 -195 251 -226 261 -16 5 -18 8 -7 15 9 6 10 9 2 9 -6 0 -14 -4 -18
-10z"/>
<path d="M1713 3090 c0 -25 2 -35 4 -22 2 12 2 32 0 45 -2 12 -4 2 -4 -23z"/>
<path d="M1043 3025 c0 -33 2 -45 4 -27 2 18 2 45 0 60 -2 15 -4 0 -4 -33z"/>
<path d="M1223 3015 c0 -22 2 -30 4 -17 2 12 2 30 0 40 -3 9 -5 -1 -4 -23z"/>
<path d="M1206 2909 c-4 -33 -5 -63 -3 -66 3 -2 8 23 12 57 4 34 5 63 2 66 -2
3 -7 -23 -11 -57z"/>
<path d="M1053 2920 c0 -25 2 -35 4 -22 2 12 2 32 0 45 -2 12 -4 2 -4 -23z"/>
<path d="M1513 2880 c0 -25 2 -35 4 -22 2 12 2 32 0 45 -2 12 -4 2 -4 -23z"/>
<path d="M1062 2850 c0 -14 4 -38 8 -55 7 -27 8 -27 8 -5 0 14 -4 39 -8 55 -7
27 -8 27 -8 5z"/>
<path d="M1081 2723 c-1 -32 3 -43 14 -43 8 0 15 5 15 12 0 6 6 4 13 -7 9 -12
16 -14 21 -7 4 6 13 9 21 5 12 -4 15 3 14 28 -2 32 -2 32 -6 6 -4 -23 -7 -26
-19 -16 -11 9 -14 8 -14 -7 -1 -16 -3 -15 -14 5 -12 22 -14 22 -21 5 -7 -15
-10 -11 -15 21 l-7 40 -2 -42z"/>
<path d="M1200 3505 c-7 -9 -11 -18 -8 -20 3 -3 11 1 18 10 7 9 11 18 8 20 -3
3 -11 -1 -18 -10z"/>
<path d="M1230 3485 c-18 -21 -3 -32 16 -13 10 9 12 18 6 22 -5 3 -15 -1 -22
-9z"/>
<path d="M945 3475 c23 -8 83 -10 79 -3 -3 4 -24 8 -47 7 -23 0 -37 -2 -32 -4z"/>
<path d="M1972 3470 c14 -4 32 -11 40 -15 7 -3 4 1 -6 9 -11 9 -29 16 -40 15
-17 -1 -16 -2 6 -9z"/>
<path d="M1930 3425 c0 -2 15 -12 33 -20 l32 -16 -24 21 c-22 19 -41 26 -41
15z"/>
</g>
</svg>
